<?xml version="1.0" standalone="no"?>
<!DOCTYPE svg PUBLIC "-//W3C//DTD SVG 20010904//EN"
 "http://www.w3.org/TR/2001/REC-SVG-20010904/DTD/svg10.dtd">
<svg version="1.0" xmlns="http://www.w3.org/2000/svg"
 width="2000.000000pt" height="1500.000000pt" viewBox="0 0 2000.000000 1500.000000"
 preserveAspectRatio="xMidYMid meet">
<metadata>
Created by potrace 1.16, written by Peter Selinger 2001-2019
</metadata>
<g transform="translate(0.000000,1500.000000) scale(0.100000,-0.100000)"
fill="#000000" stroke="none">
<path d="M3837 10255 c-180 -46 -319 -182 -359 -353 l-11 -50 -176 -5 c-194
-5 -250 -16 -366 -71 -185 -88 -316 -241 -387 -451 l-23 -70 -3 -1230 c-2
-1095 -1 -1239 13 -1309 62 -306 293 -527 607 -579 l73 -13 67 -114 c37 -63
77 -123 89 -132 19 -16 45 -18 214 -18 l192 0 12 -102 c16 -133 57 -293 114
-443 76 -204 107 -329 122 -497 l7 -78 60 0 59 0 -6 58 c-23 214 -54 350 -116
511 -78 202 -129 404 -129 513 l0 39 58 -3 c55 -3 57 -4 60 -33 12 -140 39
-242 147 -543 39 -111 80 -288 90 -392 3 -36 8 -84 11 -108 l5 -42 56 0 56 0
-7 93 c-11 165 -50 345 -108 507 -100 279 -116 334 -132 468 l-7 52 190 0
c165 0 191 2 210 18 12 9 52 69 90 132 l68 115 72 12 c170 28 286 88 406 208
91 91 143 174 183 290 l27 80 0 1260 c0 1412 5 1321 -73 1472 -95 184 -244
309 -447 373 -58 19 -100 23 -251 28 l-182 4 -6 41 c-17 102 -108 234 -204
296 -106 68 -253 94 -365 66z m254 -138 c114 -55 192 -165 208 -294 5 -46 13
-70 26 -79 14 -11 64 -14 206 -14 219 0 264 -7 379 -62 155 -74 282 -228 325
-395 12 -47 15 -151 15 -595 l0 -538 -1310 0 -1310 0 0 533 c0 593 1 604 67
731 53 101 165 211 263 259 120 58 169 67 385 67 144 0 196 3 210 13 12 9 21
35 26 77 22 158 127 282 274 321 60 16 176 4 236 -24z m-667 -2138 c30 -23 33
-45 10 -77 -15 -22 -19 -22 -229 -22 -238 0 -249 3 -243 64 5 50 29 56 244 56
179 0 193 -1 218 -21z m6 -399 c11 -11 20 -29 20 -40 0 -11 -9 -29 -20 -40
-19 -19 -33 -20 -227 -20 -227 0 -243 4 -243 61 0 54 22 59 247 59 190 0 204
-1 223 -20z m0 -400 c11 -11 20 -29 20 -40 0 -11 -9 -29 -20 -40 -19 -19 -33
-20 -223 -20 -167 0 -206 3 -225 16 -26 18 -29 60 -5 86 15 16 35 18 225 18
195 0 209 -1 228 -20z m6 -405 c21 -32 12 -68 -21 -83 -17 -8 -93 -12 -218
-12 -158 0 -197 3 -215 16 -26 18 -29 60 -5 86 15 16 35 18 229 18 l214 0 16
-25z m1102 -653 c-1 -5 -21 -38 -43 -75 l-39 -67 -516 0 c-480 0 -516 1 -526
18 -6 9 -25 43 -43 75 l-32 57 601 0 c331 0 600 -4 598 -8z"/>
<path d="M3840 9978 c-25 -14 -58 -44 -75 -67 -27 -39 -30 -50 -30 -120 0 -68
3 -82 27 -117 44 -62 90 -88 167 -92 55 -3 74 1 111 20 69 37 104 94 108 176
3 56 0 74 -20 112 -37 69 -94 104 -176 108 -56 3 -74 0 -112 -20z m170 -123
c73 -73 -18 -198 -109 -150 -78 40 -73 146 9 178 27 11 74 -3 100 -28z"/>
<path d="M4547 9542 c-10 -10 -17 -27 -17 -38 0 -40 23 -55 98 -64 41 -6 97
-21 129 -37 113 -53 204 -179 218 -302 9 -80 14 -91 42 -102 29 -11 57 2 73
32 19 35 -5 153 -50 245 -67 137 -201 242 -348 273 -79 16 -126 14 -145 -7z"/>
<path d="M2982 9174 c-14 -10 -22 -26 -22 -44 0 -55 21 -60 247 -60 190 0 204
1 223 20 11 11 20 29 20 40 0 11 -9 29 -20 40 -19 19 -33 20 -223 20 -167 0
-206 -3 -225 -16z"/>
<path d="M4997 8862 c-15 -16 -17 -42 -17 -179 0 -142 2 -162 18 -176 23 -21
52 -22 78 -3 17 13 19 29 22 168 3 174 -4 201 -54 206 -20 2 -36 -4 -47 -16z"/>
<path d="M2977 8772 c-21 -23 -22 -52 -3 -78 13 -18 30 -19 220 -22 l206 -3
25 25 c30 30 32 49 5 76 -19 19 -33 20 -228 20 -190 0 -210 -2 -225 -18z"/>
<path d="M2976 8374 c-21 -20 -20 -58 0 -78 14 -14 45 -16 232 -14 l216 3 15
26 c13 24 13 29 -2 53 l-17 26 -215 0 c-181 0 -216 -2 -229 -16z"/>
<path d="M5940 8305 l0 -1195 395 0 395 0 0 1195 0 1195 -395 0 -395 0 0
-1195z"/>
<path d="M7448 9033 l-3 -468 -292 -3 -293 -2 0 -235 0 -235 295 0 295 0 0
-490 0 -490 398 2 397 3 3 1193 2 1192 -400 0 -400 0 -2 -467z"/>
<path d="M9420 9495 c0 -2 142 -372 315 -820 173 -449 315 -818 315 -820 0 -3
-97 -5 -215 -5 -118 0 -215 -2 -215 -3 0 -2 -36 -106 -80 -231 -44 -126 -80
-230 -80 -232 0 -2 173 -4 384 -4 294 0 387 -3 393 -12 4 -7 29 -67 55 -133
l46 -120 402 -3 c379 -2 401 -1 396 15 -3 10 -217 547 -475 1193 l-468 1175
-387 3 c-212 1 -386 0 -386 -3z"/>
<path d="M10800 9496 c0 -3 182 -370 405 -817 l405 -811 0 -379 0 -379 395 0
395 0 0 355 0 355 -412 840 -411 840 -389 0 c-213 0 -388 -2 -388 -4z"/>
<path d="M12265 9143 c-104 -196 -191 -361 -193 -368 -2 -6 84 -186 189 -399
l192 -386 147 287 c80 159 253 498 384 756 l237 467 -383 0 -383 0 -190 -357z"/>
<path d="M13820 9496 c0 -2 140 -365 311 -807 171 -442 314 -812 316 -821 5
-17 -10 -18 -209 -18 l-215 0 -78 -222 c-43 -123 -80 -229 -82 -235 -4 -10 77
-13 384 -13 l390 0 52 -135 53 -135 399 0 c219 0 399 3 399 8 -1 4 -214 540
-474 1192 l-472 1185 -387 3 c-213 1 -387 1 -387 -2z"/>
<path d="M15420 9240 l0 -260 1035 0 1035 0 0 260 0 260 -1035 0 -1035 0 0
-260z"/>
<path d="M8902 8257 c-232 -623 -423 -1135 -422 -1139 0 -5 171 -8 380 -8
l379 0 221 668 220 669 -175 468 c-96 257 -176 469 -177 471 -2 1 -193 -507
-426 -1129z"/>
<path d="M13302 8253 c-232 -621 -422 -1131 -422 -1136 0 -4 172 -6 381 -5
l382 3 218 665 219 665 -171 460 c-94 253 -174 463 -178 468 -4 4 -197 -500
-429 -1120z"/>
<path d="M16040 7985 l0 -875 413 2 412 3 3 873 2 872 -415 0 -415 0 0 -875z"/>
<path d="M11830 6534 c-113 -17 -167 -46 -216 -116 -47 -70 -70 -148 -105
-366 -17 -109 -34 -205 -38 -216 -5 -14 -27 23 -85 144 -94 197 -106 229 -106
292 l0 50 -124 -4 c-107 -3 -128 -6 -152 -24 -35 -26 -60 -62 -68 -96 -8 -33
17 -40 34 -9 14 27 73 44 126 36 24 -3 44 -10 44 -15 0 -27 -92 -549 -101
-571 -6 -15 -24 -39 -40 -55 -16 -15 -29 -36 -29 -47 0 -16 4 -18 28 -11 34 9
53 9 120 -1 51 -7 53 -7 87 29 49 52 46 64 -14 58 l-49 -4 12 38 c7 22 26 119
42 217 15 97 31 177 34 176 3 0 47 -87 99 -194 l94 -194 -7 -70 c-6 -61 -5
-71 9 -71 26 0 61 28 90 72 24 36 34 79 77 327 85 501 101 536 245 556 58 8
103 36 103 66 0 10 -3 18 -7 18 -5 -1 -51 -8 -103 -15z"/>
<path d="M12608 6525 c-160 -23 -248 -89 -458 -339 -62 -75 -115 -136 -117
-136 -5 0 7 74 28 175 10 49 19 91 19 93 0 3 -55 3 -122 0 -141 -5 -176 -18
-202 -72 -16 -35 -21 -76 -9 -76 4 0 20 12 36 28 24 23 37 27 87 27 32 0 61
-2 63 -5 5 -5 -61 -427 -84 -538 -7 -37 -21 -66 -45 -92 -55 -61 -50 -65 76
-65 l110 0 25 30 c34 42 33 66 -2 56 -16 -4 -38 -5 -51 -3 -18 3 -21 7 -12 17
9 10 49 213 50 250 0 6 37 -59 83 -144 94 -176 129 -221 175 -221 52 0 142
113 142 178 0 32 -12 27 -49 -18 -35 -43 -59 -50 -83 -22 -8 9 -52 84 -97 165
-72 128 -81 150 -69 165 119 154 309 368 360 407 73 55 85 60 155 70 54 7 103
40 103 70 0 17 4 17 -112 0z"/>
<path d="M6932 6385 c-52 -23 -147 -120 -171 -174 -12 -28 -38 -151 -60 -282
-21 -129 -43 -246 -49 -260 -8 -19 -20 -28 -46 -33 -41 -8 -86 -56 -86 -93 0
-23 2 -24 28 -17 15 5 70 7 122 4 52 -3 140 -5 195 -5 89 0 106 3 152 27 55
29 93 70 93 99 0 24 -5 24 -64 -6 -43 -22 -62 -25 -150 -25 -56 0 -110 3 -122
6 -20 5 -20 6 -3 42 10 20 36 152 59 292 23 140 50 273 59 295 27 62 41 69
121 62 60 -5 73 -3 101 16 18 12 34 27 36 33 10 32 -153 46 -215 19z"/>
<path d="M6165 6316 c-112 -35 -197 -106 -220 -183 -10 -35 11 -28 69 22 66
56 127 83 203 91 118 12 183 -28 183 -115 0 -94 -63 -161 -150 -161 -26 0 -49
2 -52 5 -6 7 18 153 31 188 15 40 15 40 -24 34 -45 -7 -89 -39 -103 -74 -6
-16 -25 -125 -43 -243 -17 -118 -35 -222 -39 -230 -5 -8 -24 -31 -44 -49 -20
-19 -36 -44 -36 -55 0 -20 5 -21 188 -21 186 0 187 0 242 28 67 35 105 70 133
122 42 81 18 192 -56 251 l-34 27 53 51 c75 74 93 150 53 232 -15 33 -32 49
-72 68 -44 23 -63 26 -146 25 -53 0 -114 -6 -136 -13z m165 -452 c41 -35 60
-74 60 -126 0 -81 -51 -118 -164 -118 -80 0 -99 6 -87 28 5 10 14 55 20 102
21 152 14 140 81 140 48 0 64 -4 90 -26z"/>
<path d="M7464 6305 c-103 -51 -204 -185 -250 -329 -48 -152 -42 -288 16 -379
39 -61 90 -87 172 -87 131 0 261 97 337 252 109 220 87 470 -48 546 -57 32
-160 31 -227 -3z m122 -70 c26 -11 40 -27 57 -62 32 -70 32 -266 0 -369 -42
-132 -112 -207 -193 -207 -86 0 -122 58 -128 205 -10 231 89 433 221 447 4 1
23 -6 43 -14z"/>
<path d="M8180 6313 c-31 -11 -67 -38 -115 -87 -213 -216 -246 -606 -58 -697
59 -29 157 -24 228 11 75 38 164 132 208 221 107 217 82 480 -52 549 -49 24
-144 26 -211 3z m126 -88 c46 -30 59 -80 59 -225 0 -116 -3 -146 -24 -209 -40
-123 -106 -192 -183 -193 -87 -2 -126 55 -135 197 -18 279 142 521 283 430z"/>
<path d="M8759 6315 c-72 -23 -139 -74 -168 -127 -20 -35 -23 -50 -15 -58 9
-9 23 -2 55 30 64 62 111 83 202 88 183 11 266 -89 254 -302 -11 -200 -94
-315 -239 -332 -64 -7 -112 1 -102 18 4 6 28 126 55 267 26 141 51 266 55 279
5 18 3 22 -17 22 -31 0 -83 -32 -104 -63 -11 -18 -94 -436 -95 -479 0 -4 -18
-28 -40 -53 -69 -79 -68 -80 143 -80 178 0 183 1 237 27 31 15 74 43 97 62
168 145 203 481 64 629 -14 16 -48 41 -76 55 -43 22 -65 26 -155 29 -72 2
-119 -2 -151 -12z"/>
<path d="M9840 6312 c-72 -24 -94 -36 -142 -80 -41 -37 -68 -79 -68 -107 0
-26 21 -17 72 31 72 67 125 88 228 89 103 0 133 -15 151 -74 16 -55 -2 -119
-47 -162 -29 -28 -42 -33 -95 -37 l-61 -5 7 64 c4 35 14 84 21 109 8 25 14 48
14 53 0 12 -39 8 -68 -7 -64 -33 -69 -47 -102 -266 -17 -113 -33 -221 -37
-239 -4 -22 -22 -51 -49 -79 -75 -76 -72 -77 144 -77 212 0 240 7 322 81 103
93 106 211 9 310 l-40 41 40 32 c52 42 81 102 81 173 0 67 -26 112 -85 142
-56 29 -217 34 -295 8z m168 -442 c43 -26 76 -99 69 -148 -12 -68 -68 -102
-169 -102 -69 0 -92 9 -83 31 2 8 12 61 20 118 8 57 18 107 21 112 10 18 108
10 142 -11z"/>
<path d="M10445 6312 c-51 -24 -111 -90 -120 -132 -10 -47 1 -48 43 -2 21 23
55 48 75 57 37 15 123 20 164 9 22 -6 22 -7 -11 -45 -50 -59 -82 -124 -147
-301 -83 -228 -106 -262 -202 -301 -23 -10 -41 -26 -47 -43 -14 -35 -7 -40 35
-27 25 8 53 8 99 0 73 -12 103 0 131 53 17 33 17 33 -39 30 l-39 -2 44 45 c25
24 53 63 63 86 l19 41 72 0 72 0 5 -94 c7 -121 28 -170 77 -174 47 -5 84 13
131 64 42 46 54 82 23 69 -71 -29 -73 -30 -90 -12 -15 14 -18 44 -21 208 -5
204 7 334 38 424 l17 51 -61 0 c-33 0 -113 4 -176 8 -102 6 -120 5 -155 -12z
m238 -177 c-7 -35 -16 -108 -20 -162 l-8 -98 -44 -3 c-71 -5 -73 -3 -50 80 11
40 31 97 44 125 24 54 72 123 84 123 4 0 2 -29 -6 -65z"/>
</g>
</svg>
